<svg width="32" height="32" viewBox="0 0 32 32" fill="none" xmlns="http://www.w3.org/2000/svg">
<path d="M3.46518 30.8574L28.8755 30.8574C30.1513 30.8574 31.1855 29.8341 31.1855 28.5717L31.1855 3.42885C31.1855 2.16649 30.1513 1.14314 28.8755 1.14314L3.46518 1.14314C2.18939 1.14314 1.15515 2.16649 1.15515 3.42885L1.15515 28.5717C1.15515 29.8341 2.18939 30.8574 3.46518 30.8574Z" stroke="#5A0F23" stroke-linecap="round" stroke-linejoin="round"/>
<path d="M16.1703 21.7145C18.0083 21.7145 19.771 20.9921 21.0706 19.7061C22.3703 18.4202 23.1004 16.676 23.1004 14.8574V9.85169C23.1008 9.65747 23.0512 9.46635 22.9562 9.29638C22.8612 9.12641 22.724 8.9832 22.5576 8.88026C22.3911 8.77732 22.2009 8.71806 22.0049 8.70806C21.8088 8.69806 21.6135 8.73766 21.4372 8.82312L16.1703 11.4288L10.9035 8.82312C10.7272 8.73766 10.5318 8.69806 10.3358 8.70806C10.1398 8.71806 9.94955 8.77732 9.78309 8.88026C9.61664 8.9832 9.47945 9.12641 9.38446 9.29638C9.28948 9.46635 9.23984 9.65747 9.24024 9.85169V14.8574C9.24024 16.676 9.97037 18.4202 11.27 19.7061C12.5697 20.9921 14.3324 21.7145 16.1703 21.7145ZM16.1703 21.7145V30.8574M16.1703 30.8574L21.9454 25.1431M16.1703 30.8574L10.3953 25.1431" stroke="#5A0F23" stroke-linecap="round" stroke-linejoin="round"/>
</svg>
