<svg width="32" height="32" viewBox="0 0 32 32" fill="none" xmlns="http://www.w3.org/2000/svg">
<path d="M19.4283 11.4289C20.6907 11.4289 21.714 10.4055 21.714 9.14314C21.714 7.88077 20.6907 6.85742 19.4283 6.85742C18.1659 6.85742 17.1426 7.88077 17.1426 9.14314C17.1426 10.4055 18.1659 11.4289 19.4283 11.4289Z" stroke="#5A0F23" stroke-linecap="round" stroke-linejoin="round"/>
<path d="M10.2854 22.8575C10.9166 22.8575 11.4283 22.3458 11.4283 21.7146C11.4283 21.0835 10.9166 20.5718 10.2854 20.5718C9.65425 20.5718 9.14258 21.0835 9.14258 21.7146C9.14258 22.3458 9.65425 22.8575 10.2854 22.8575Z" stroke="#5A0F23" stroke-linecap="round" stroke-linejoin="round"/>
<path d="M10.2857 14.8576C11.5481 14.8576 12.5714 13.8342 12.5714 12.5718C12.5714 11.3095 11.5481 10.2861 10.2857 10.2861C9.02335 10.2861 8 11.3095 8 12.5718C8 13.8342 9.02335 14.8576 10.2857 14.8576Z" stroke="#5A0F23" stroke-linecap="round" stroke-linejoin="round"/>
<path d="M21.7606 28.0688C21.7351 27.6254 21.581 27.1991 21.3172 26.8419C21.0533 26.4847 20.6912 26.2121 20.2749 26.0574C19.2411 25.7176 18.3624 25.0201 17.7968 24.0904C17.2312 23.1607 17.0158 22.0598 17.1893 20.9855C17.3629 19.9112 17.914 18.934 18.7435 18.2297C19.5731 17.5254 20.6267 17.1401 21.7149 17.1431H25.9892C26.7223 17.1451 27.4451 16.9708 28.0967 16.6349C28.7483 16.2989 29.3096 15.8112 29.7331 15.2129C30.1567 14.6145 30.4301 13.9231 30.5304 13.1968C30.6306 12.4706 30.5548 11.731 30.3092 11.0402C29.4001 8.47328 27.8029 6.20559 25.6923 4.48489C23.5816 2.76419 21.0387 1.65668 18.3412 1.28335C15.6438 0.910025 12.8956 1.28525 10.3969 2.36803C7.89831 3.45081 5.74532 5.19949 4.1732 7.42301C2.60109 9.64654 1.67033 12.2594 1.48261 14.9761C1.2949 17.6928 1.85745 20.4088 3.1088 22.8274C4.36016 25.246 6.25218 27.2742 8.57815 28.6903C10.9041 30.1065 13.5746 30.8561 16.2977 30.8574C17.6426 30.8611 18.9813 30.6765 20.2749 30.3088C20.75 30.1757 21.1614 29.8762 21.4342 29.465C21.7069 29.0538 21.8228 28.5583 21.7606 28.0688Z" stroke="#5A0F23" stroke-linecap="round" stroke-linejoin="round"/>
</svg>
