<svg width="33" height="32" viewBox="0 0 33 32" fill="none" xmlns="http://www.w3.org/2000/svg">
<path d="M28.2981 3.5C25.7349 3.5 22.8457 4.905 19.7077 7.675C17.3744 9.73625 15.3632 12.1538 14.0228 13.9163C12.9547 13.5351 11.8096 13.4139 10.6841 13.5629C9.55869 13.7119 8.48605 14.1268 7.55682 14.7725C6.6276 15.4182 5.86911 16.2757 5.34543 17.2726C4.82175 18.2695 4.54827 19.3765 4.5481 20.5C4.5481 24.6525 1.86233 26.5 1.74105 26.585C1.65127 26.6447 1.58321 26.7313 1.5469 26.8322C1.51059 26.933 1.50793 27.0427 1.53933 27.1451C1.57072 27.2475 1.63451 27.3373 1.72131 27.4012C1.8081 27.4651 1.91333 27.4997 2.0215 27.5H11.6226C12.758 27.4998 13.8768 27.2292 14.8843 26.7111C15.8918 26.1929 16.7584 25.4424 17.411 24.5229C18.0635 23.6035 18.4829 22.5422 18.6335 21.4286C18.7841 20.315 18.6616 19.1819 18.2764 18.125C20.0589 16.7963 22.5008 14.8062 24.584 12.5C27.3835 9.395 28.8034 6.53625 28.8034 4C28.8034 3.86739 28.7502 3.74021 28.6554 3.64645C28.5606 3.55268 28.4321 3.5 28.2981 3.5ZM11.6226 26.5H3.32902C4.28407 25.4613 5.55874 23.51 5.55874 20.5C5.55874 19.3133 5.91438 18.1533 6.58068 17.1666C7.24698 16.1799 8.19402 15.4108 9.30204 14.9567C10.4101 14.5026 11.6293 14.3838 12.8056 14.6153C13.9818 14.8468 15.0623 15.4182 15.9103 16.2574C16.7584 17.0965 17.3359 18.1656 17.5699 19.3295C17.8039 20.4933 17.6838 21.6997 17.2248 22.7961C16.7659 23.8925 15.9886 24.8295 14.9915 25.4888C13.9943 26.1481 12.8219 26.5 11.6226 26.5ZM14.9728 14.3363C15.4946 13.6562 16.1502 12.8363 16.9044 11.9738C18.2634 12.7984 19.4061 13.9291 20.2395 15.2738C19.3628 16.0238 18.5391 16.6687 17.8519 17.185C17.1932 15.9782 16.1925 14.9881 14.9728 14.3363ZM21.0076 14.6038C20.1308 13.2387 18.9611 12.0813 17.5815 11.2137C20.3393 8.17875 24.1621 4.82875 27.77 4.5225C27.4605 8.0925 24.0749 11.875 21.0076 14.6038Z" fill="#5A0F23"/>
</svg>
