<svg width="28" height="28" viewBox="0 0 28 28" fill="none" xmlns="http://www.w3.org/2000/svg">
<path d="M14 8.78646C12.9689 8.78646 11.9609 9.09223 11.1035 9.6651C10.2461 10.238 9.57792 11.0522 9.18332 12.0049C8.78872 12.9575 8.68547 14.0058 8.88664 15.0171C9.0878 16.0284 9.58434 16.9574 10.3135 17.6865C11.0426 18.4157 11.9716 18.9122 12.9829 19.1134C13.9942 19.3145 15.0425 19.2113 15.9951 18.8167C16.9478 18.4221 17.762 17.7539 18.3349 16.8965C18.9078 16.0391 19.2135 15.0311 19.2135 14C19.2135 12.6173 18.6643 11.2912 17.6865 10.3135C16.7088 9.33574 15.3827 8.78646 14 8.78646ZM14 18.2656C13.1563 18.2656 12.3316 18.0155 11.6301 17.5467C10.9287 17.078 10.3819 16.4118 10.0591 15.6324C9.73622 14.8529 9.65175 13.9953 9.81634 13.1678C9.98093 12.3404 10.3872 11.5803 10.9837 10.9837C11.5803 10.3872 12.3404 9.98093 13.1678 9.81634C13.9953 9.65175 14.8529 9.73622 15.6324 10.0591C16.4118 10.3819 17.078 10.9287 17.5467 11.6301C18.0155 12.3316 18.2656 13.1563 18.2656 14C18.2656 15.1313 17.8162 16.2163 17.0163 17.0163C16.2163 17.8162 15.1313 18.2656 14 18.2656ZM19.2135 2.625H8.78646C7.15234 2.625 5.58515 3.27415 4.42965 4.42965C3.27415 5.58515 2.625 7.15234 2.625 8.78646V19.2135C2.625 20.0227 2.78437 20.8239 3.09401 21.5714C3.40366 22.319 3.8575 22.9982 4.42965 23.5704C5.58515 24.7258 7.15234 25.375 8.78646 25.375H19.2135C20.0227 25.375 20.8239 25.2156 21.5714 24.906C22.319 24.5963 22.9982 24.1425 23.5704 23.5704C24.1425 22.9982 24.5963 22.319 24.906 21.5714C25.2156 20.8239 25.375 20.0227 25.375 19.2135V8.78646C25.375 7.97732 25.2156 7.17611 24.906 6.42857C24.5963 5.68103 24.1425 5.00179 23.5704 4.42965C22.9982 3.8575 22.319 3.40366 21.5714 3.09401C20.8239 2.78437 20.0227 2.625 19.2135 2.625ZM24.4271 19.2135C24.4271 20.5963 23.8778 21.9223 22.9001 22.9001C21.9223 23.8778 20.5963 24.4271 19.2135 24.4271H8.78646C7.40374 24.4271 6.07766 23.8778 5.09993 22.9001C4.1222 21.9223 3.57292 20.5963 3.57292 19.2135V8.78646C3.57292 7.40374 4.1222 6.07766 5.09993 5.09993C6.07766 4.1222 7.40374 3.57292 8.78646 3.57292H19.2135C20.5963 3.57292 21.9223 4.1222 22.9001 5.09993C23.8778 6.07766 24.4271 7.40374 24.4271 8.78646V19.2135ZM21.1094 7.83854C21.1094 8.02602 21.0538 8.20929 20.9496 8.36518C20.8455 8.52106 20.6974 8.64256 20.5242 8.7143C20.351 8.78605 20.1604 8.80482 19.9765 8.76824C19.7927 8.73167 19.6237 8.64139 19.4912 8.50882C19.3586 8.37625 19.2683 8.20735 19.2318 8.02347C19.1952 7.83959 19.214 7.649 19.2857 7.47579C19.3574 7.30258 19.4789 7.15454 19.6348 7.05038C19.7907 6.94622 19.974 6.89062 20.1615 6.89062C20.4129 6.89062 20.654 6.99049 20.8317 7.16826C21.0095 7.34603 21.1094 7.58714 21.1094 7.83854Z" fill="#1A1315"/>
</svg>
