<svg width="24" height="24" viewBox="0 0 24 24" fill="none" xmlns="http://www.w3.org/2000/svg">
<path d="M23.1316 7.32368L23.131 7.32559L20.6308 16.1036L20.6303 16.1052C20.5036 16.5315 20.2439 16.9059 19.8892 17.1732C19.5345 17.4405 19.1036 17.5866 18.6599 17.59L18.6587 17.59L9.58592 17.59H9.58478C9.14103 17.5866 8.71013 17.4405 8.35544 17.1732C8.00075 16.9059 7.74101 16.5315 7.61432 16.1052L7.6138 16.1035L7.61381 16.1035L5.12305 7.33499L5.11734 7.31489V7.29606L4.19543 4.0782C4.18039 4.02973 4.15043 3.98737 4.10995 3.95717C4.06926 3.92682 4.02004 3.91032 3.96945 3.91H2.37882C2.23842 3.91 2.10386 3.85405 2.00472 3.7546C1.9056 3.65517 1.85 3.52041 1.85 3.38C1.85 3.23959 1.9056 3.10483 2.00472 3.0054L2.11095 3.1113L2.00472 3.0054C2.10386 2.90595 2.23842 2.85 2.37882 2.85H3.96988H3.97003C4.25009 2.85029 4.52248 2.94154 4.74644 3.11003C4.97038 3.27852 5.13384 3.51515 5.21245 3.78447L5.21278 3.78559L5.21278 3.78559L6.02473 6.65H22.6165H22.6174V6.8C22.6764 6.79924 22.7346 6.81264 22.7873 6.83908C22.8401 6.86553 22.8857 6.90424 22.9205 6.952L23.1316 7.32368ZM23.1316 7.32368C23.153 7.24454 23.1558 7.1615 23.1397 7.08109C23.1239 7.0014 23.0899 6.92642 23.0405 6.86196L23.1316 7.32368ZM10.2674 21.5765C10.4087 21.3644 10.4841 21.115 10.4841 20.86C10.4841 20.518 10.3487 20.19 10.1075 19.948C9.86624 19.706 9.53897 19.57 9.19763 19.57C8.94308 19.57 8.6943 19.6457 8.48273 19.7875C8.27116 19.9293 8.10634 20.1308 8.00902 20.3665C7.91171 20.6021 7.88626 20.8614 7.93586 21.1116C7.98547 21.3617 8.10791 21.5916 8.28779 21.772C8.46768 21.9524 8.69692 22.0754 8.94656 22.1252C9.19621 22.175 9.45496 22.1494 9.69009 22.0517C9.92521 21.954 10.1261 21.7886 10.2674 21.5765ZM19.047 19.57C18.7925 19.57 18.5437 19.6457 18.3321 19.7875C18.1205 19.9293 17.9557 20.1308 17.8584 20.3665C17.7611 20.6021 17.7356 20.8614 17.7852 21.1116C17.8349 21.3617 17.9573 21.5916 18.1372 21.772C18.3171 21.9524 18.5463 22.0754 18.7959 22.1252C19.0456 22.175 19.3043 22.1494 19.5395 22.0517C19.7746 21.954 19.9755 21.7886 20.1168 21.5765C20.2581 21.3644 20.3335 21.115 20.3335 20.86C20.3335 20.518 20.1981 20.19 19.9569 19.948C19.7156 19.706 19.3884 19.57 19.047 19.57ZM6.32776 7.71H21.9169L19.6133 15.8115C19.6133 15.8117 19.6132 15.8119 19.6131 15.8121C19.5526 16.0191 19.4269 16.2009 19.2549 16.3302C19.0828 16.4597 18.8736 16.5298 18.6586 16.53H9.58608C9.37105 16.5298 9.16183 16.4597 8.98972 16.3302C8.81773 16.2008 8.69202 16.019 8.63147 15.8119C8.63142 15.8118 8.63137 15.8116 8.63133 15.8115L6.32776 7.71Z" fill="#1A1315" stroke="#1A1315" stroke-width="0.3"/>
</svg>
