<svg width="28" height="28" viewBox="0 0 28 28" fill="none" xmlns="http://www.w3.org/2000/svg">
<path d="M25.003 3.80628C24.8224 3.65034 24.6028 3.54655 24.3677 3.50608C24.1326 3.46561 23.8909 3.48999 23.6686 3.57659L3.48891 11.5063C3.22666 11.6106 3.00504 11.7967 2.85691 12.037C2.70878 12.2772 2.64204 12.5588 2.6666 12.84C2.69116 13.1212 2.8057 13.3869 2.99323 13.5979C3.18076 13.8088 3.4313 13.9537 3.70766 14.011L9.18735 15.1157V21.875C9.18403 22.1354 9.25955 22.3907 9.40401 22.6074C9.54846 22.8241 9.75508 22.992 9.99673 23.0891C10.1603 23.1542 10.3347 23.1876 10.5108 23.1875C10.6816 23.1877 10.8508 23.154 11.0085 23.0882C11.1663 23.0225 11.3094 22.9262 11.4295 22.8047L14.5577 19.6766L19.1733 23.7344C19.4098 23.9485 19.7183 24.0657 20.0373 24.0625C20.1749 24.0622 20.3115 24.04 20.442 23.9969C20.6571 23.9263 20.8504 23.8018 21.0036 23.6352C21.1568 23.4686 21.2647 23.2655 21.317 23.0453L25.4295 5.08597C25.4834 4.85407 25.472 4.6118 25.3967 4.38596C25.3215 4.16011 25.1852 3.95949 25.003 3.80628ZM3.53266 12.7641C3.51965 12.6693 3.53975 12.5729 3.58957 12.4912C3.63939 12.4095 3.71587 12.3475 3.8061 12.3157L22.3123 5.05315L9.52641 14.2844L3.88266 13.1578C3.78866 13.1409 3.70307 13.0928 3.63961 13.0215C3.57615 12.9501 3.53849 12.8594 3.53266 12.7641ZM10.8061 22.1813C10.7467 22.243 10.67 22.2855 10.5861 22.303C10.5022 22.3206 10.415 22.3125 10.3358 22.2797C10.2551 22.2471 10.186 22.1912 10.1373 22.1191C10.0886 22.047 10.0625 21.962 10.0624 21.875V15.7172L13.9014 19.0969L10.8061 22.1813ZM24.5764 4.90003L20.4639 22.8485C20.4475 22.9229 20.4115 22.9916 20.3595 23.0474C20.3076 23.1031 20.2417 23.144 20.1686 23.1657C20.098 23.191 20.0218 23.1963 19.9484 23.1808C19.875 23.1654 19.8073 23.1298 19.753 23.0782L10.3249 14.7875L24.5108 4.53909C24.5466 4.59123 24.5709 4.65034 24.5822 4.71254C24.5935 4.77475 24.5915 4.83864 24.5764 4.90003Z" fill="#1A1315"/>
</svg>
