<svg width="28" height="28" viewBox="0 0 28 28" fill="none" xmlns="http://www.w3.org/2000/svg">
<path d="M12.9632 1.45825C10.9647 1.4604 9.00106 1.98239 7.26549 2.97292C5.52992 3.96344 4.08212 5.38839 3.06445 7.10767C2.04678 8.82694 1.49427 10.7813 1.46125 12.7787C1.42822 14.7761 1.91582 16.7477 2.87609 18.4996L1.45801 24.4583L7.41931 23.0408C8.95686 23.8839 10.6669 24.3645 12.4187 24.4458C14.1705 24.5272 15.9177 24.2072 17.5269 23.5103C19.136 22.8134 20.5645 21.7581 21.7031 20.4249C22.8418 19.0917 23.6604 17.516 24.0966 15.8182C24.5327 14.1203 24.5747 12.3453 24.2195 10.6287C23.8642 8.91215 23.1211 7.29947 22.0469 5.91391C20.9726 4.52836 19.5957 3.4066 18.0214 2.63436C16.447 1.86212 14.7169 1.45984 12.9632 1.45825V1.45825ZM7.21061 6.68407H10.3464C10.4884 6.68407 10.6245 6.74042 10.7248 6.84073C10.8252 6.94104 10.8816 7.07709 10.8816 7.21895C10.864 7.93227 10.9839 8.64231 11.2348 9.31035C11.3428 9.53397 11.3665 9.78902 11.3017 10.0287C11.2368 10.2684 11.0876 10.4768 10.8816 10.6155L9.78456 11.6852C10.271 12.6347 10.907 13.4997 11.6682 14.2473C12.4101 15.0206 13.272 15.669 14.2208 16.1676L15.291 15.071C15.8261 14.5362 16.0723 14.5362 16.5967 14.718C17.2651 14.9687 17.9754 15.0886 18.6891 15.071C18.8289 15.0776 18.9612 15.136 19.0602 15.2349C19.1592 15.3339 19.2177 15.4662 19.2242 15.6059V18.7403C19.2177 18.8801 19.1592 19.0124 19.0602 19.1113C18.9612 19.2103 18.8289 19.2687 18.6891 19.2752C15.5412 19.1381 12.5574 17.8338 10.3197 15.6166C8.09805 13.3823 6.79248 10.3984 6.65943 7.25104C6.6607 7.10381 6.71869 6.96274 6.82134 6.85715C6.924 6.75155 7.06341 6.68956 7.21061 6.68407V6.68407Z" stroke="#1A1315" stroke-linecap="round" stroke-linejoin="round"/>
</svg>
